<?xml version="1.0" encoding="utf-8"?>
<!-- Generator: Adobe Illustrator 23.0.1, SVG Export Plug-In . SVG Version: 6.00 Build 0)  -->
<svg version="1.1" id="Layer_1" xmlns="http://www.w3.org/2000/svg" xmlns:xlink="http://www.w3.org/1999/xlink" x="0px" y="0px"
	 viewBox="0 0 1000 1000" style="enable-background:new 0 0 1000 1000;" xml:space="preserve">
<path d="M521.5,105c47.6,0,90.4,0,133.4,0c13,114,78.7,174,190.1,189.7c0,43.2,0,85.6,0,131c-67.7,3-127.4-19.3-186-56.8
	c-0.8,9.4-2,16.2-2,23c-0.1,83.3,0.3,166.6-0.1,249.9C656.1,782.4,555.4,885,409.5,894.6c-116.6,7.6-233.5-94-251.9-218.9
	c-21.9-149.3,104.2-288.7,254.7-281.4c8.2,0.4,16.3,2,25.7,3.3c0,44.2,0,87,0,132.8c-7.1,0-14.2,0.3-21.2-0.1
	c-68-3.7-122.4,43.5-124.8,108.4c-2.3,61.9,46.4,115.5,107.1,117.8c68.7,2.6,121.6-45.5,122-114.2c0.9-166.6,0.3-333.2,0.4-499.9
	C521.5,130.4,521.5,118.5,521.5,105z"/>
</svg>
